<svg width="900" height="854" viewBox="0 0 900 854" fill="none" xmlns="http://www.w3.org/2000/svg">
<rect width="900" height="854" rx="20" fill="#1C2526"/>
<path d="M184.709 687.097C184.539 685.658 183.847 684.541 182.635 683.745C181.423 682.95 179.936 682.552 178.175 682.552C176.887 682.552 175.76 682.76 174.794 683.177C173.838 683.594 173.09 684.166 172.55 684.896C172.02 685.625 171.755 686.453 171.755 687.381C171.755 688.158 171.939 688.826 172.309 689.384C172.687 689.934 173.17 690.393 173.757 690.762C174.345 691.122 174.96 691.42 175.604 691.657C176.248 691.884 176.84 692.069 177.38 692.211L180.334 693.006C181.092 693.205 181.935 693.48 182.863 693.83C183.8 694.181 184.695 694.659 185.547 695.265C186.409 695.862 187.119 696.629 187.678 697.566C188.237 698.504 188.516 699.654 188.516 701.018C188.516 702.59 188.104 704.01 187.28 705.279C186.466 706.548 185.273 707.557 183.701 708.305C182.138 709.053 180.239 709.427 178.005 709.427C175.921 709.427 174.117 709.091 172.593 708.418C171.078 707.746 169.884 706.809 169.013 705.606C168.151 704.403 167.664 703.006 167.55 701.416H171.186C171.281 702.514 171.65 703.423 172.294 704.143C172.948 704.853 173.772 705.383 174.766 705.734C175.77 706.075 176.849 706.245 178.005 706.245C179.349 706.245 180.557 706.027 181.627 705.592C182.697 705.147 183.544 704.531 184.169 703.745C184.794 702.95 185.107 702.022 185.107 700.961C185.107 699.995 184.837 699.209 184.297 698.603C183.757 697.997 183.047 697.505 182.167 697.126C181.286 696.747 180.334 696.416 179.311 696.131L175.732 695.109C173.459 694.455 171.66 693.523 170.334 692.31C169.008 691.098 168.346 689.512 168.346 687.552C168.346 685.923 168.786 684.503 169.667 683.291C170.557 682.069 171.75 681.122 173.246 680.45C174.752 679.768 176.433 679.427 178.289 679.427C180.164 679.427 181.83 679.763 183.289 680.435C184.747 681.098 185.902 682.007 186.755 683.163C187.616 684.318 188.071 685.63 188.118 687.097H184.709ZM193.853 708.916V687.097H197.206V708.916H193.853ZM195.558 683.461C194.904 683.461 194.341 683.238 193.868 682.793C193.404 682.348 193.172 681.813 193.172 681.188C193.172 680.563 193.404 680.028 193.868 679.583C194.341 679.138 194.904 678.916 195.558 678.916C196.211 678.916 196.77 679.138 197.234 679.583C197.708 680.028 197.944 680.563 197.944 681.188C197.944 681.813 197.708 682.348 197.234 682.793C196.77 683.238 196.211 683.461 195.558 683.461ZM203.346 708.916V687.097H206.584V690.506H206.868C207.323 689.342 208.057 688.437 209.07 687.793C210.083 687.14 211.3 686.813 212.721 686.813C214.16 686.813 215.358 687.14 216.314 687.793C217.28 688.437 218.033 689.342 218.573 690.506H218.8C219.359 689.38 220.197 688.485 221.314 687.822C222.432 687.149 223.772 686.813 225.334 686.813C227.285 686.813 228.881 687.424 230.121 688.646C231.362 689.858 231.982 691.747 231.982 694.313V708.916H228.63V694.313C228.63 692.703 228.189 691.553 227.309 690.862C226.428 690.17 225.391 689.825 224.198 689.825C222.664 689.825 221.475 690.289 220.632 691.217C219.79 692.135 219.368 693.3 219.368 694.711V708.916H215.959V693.972C215.959 692.732 215.557 691.733 214.752 690.975C213.947 690.208 212.91 689.825 211.641 689.825C210.77 689.825 209.955 690.057 209.198 690.521C208.45 690.985 207.844 691.629 207.38 692.452C206.925 693.267 206.698 694.209 206.698 695.279V708.916H203.346ZM238.111 717.097V687.097H241.35V690.563H241.748C241.994 690.184 242.335 689.702 242.77 689.114C243.215 688.518 243.85 687.987 244.674 687.523C245.507 687.05 246.634 686.813 248.054 686.813C249.891 686.813 251.511 687.273 252.912 688.191C254.314 689.11 255.408 690.412 256.194 692.097C256.98 693.783 257.373 695.772 257.373 698.063C257.373 700.374 256.98 702.377 256.194 704.072C255.408 705.757 254.319 707.064 252.926 707.992C251.534 708.911 249.929 709.37 248.111 709.37C246.71 709.37 245.587 709.138 244.745 708.674C243.902 708.201 243.253 707.666 242.799 707.069C242.344 706.463 241.994 705.961 241.748 705.563H241.463V717.097H238.111ZM241.407 698.006C241.407 699.654 241.648 701.108 242.131 702.367C242.614 703.617 243.319 704.597 244.248 705.308C245.176 706.008 246.312 706.359 247.657 706.359C249.058 706.359 250.228 705.989 251.165 705.251C252.112 704.503 252.822 703.499 253.296 702.239C253.779 700.97 254.02 699.559 254.02 698.006C254.02 696.472 253.783 695.09 253.31 693.859C252.846 692.618 252.141 691.638 251.194 690.918C250.256 690.189 249.077 689.825 247.657 689.825C246.293 689.825 245.147 690.17 244.219 690.862C243.291 691.543 242.59 692.5 242.117 693.731C241.643 694.952 241.407 696.378 241.407 698.006ZM265.838 679.825V708.916H262.486V679.825H265.838ZM271.978 708.916V687.097H275.331V708.916H271.978ZM273.683 683.461C273.029 683.461 272.466 683.238 271.993 682.793C271.529 682.348 271.297 681.813 271.297 681.188C271.297 680.563 271.529 680.028 271.993 679.583C272.466 679.138 273.029 678.916 273.683 678.916C274.336 678.916 274.895 679.138 275.359 679.583C275.833 680.028 276.069 680.563 276.069 681.188C276.069 681.813 275.833 682.348 275.359 682.793C274.895 683.238 274.336 683.461 273.683 683.461ZM291.186 687.097V689.938H279.425V687.097H291.186ZM282.948 708.916V684.086C282.948 682.836 283.241 681.794 283.828 680.961C284.416 680.128 285.178 679.503 286.115 679.086C287.053 678.669 288.042 678.461 289.084 678.461C289.908 678.461 290.58 678.527 291.101 678.66C291.622 678.792 292.01 678.916 292.266 679.029L291.3 681.927C291.13 681.87 290.893 681.799 290.59 681.714C290.296 681.629 289.908 681.586 289.425 681.586C288.317 681.586 287.517 681.865 287.025 682.424C286.542 682.983 286.3 683.802 286.3 684.881V708.916H282.948ZM298.044 717.097C297.475 717.097 296.969 717.05 296.524 716.955C296.079 716.87 295.771 716.785 295.6 716.7L296.453 713.745C297.267 713.953 297.987 714.029 298.612 713.972C299.237 713.916 299.791 713.636 300.274 713.134C300.766 712.642 301.216 711.842 301.623 710.734L302.248 709.029L294.18 687.097H297.816L303.839 704.484H304.066L310.089 687.097H313.725L304.464 712.097C304.047 713.224 303.531 714.157 302.916 714.896C302.3 715.644 301.585 716.198 300.771 716.558C299.966 716.917 299.057 717.097 298.044 717.097ZM318.15 708.916V687.097H321.502V708.916H318.15ZM319.855 683.461C319.201 683.461 318.638 683.238 318.164 682.793C317.7 682.348 317.468 681.813 317.468 681.188C317.468 680.563 317.7 680.028 318.164 679.583C318.638 679.138 319.201 678.916 319.855 678.916C320.508 678.916 321.067 679.138 321.531 679.583C322.004 680.028 322.241 680.563 322.241 681.188C322.241 681.813 322.004 682.348 321.531 682.793C321.067 683.238 320.508 683.461 319.855 683.461ZM330.995 695.791V708.916H327.642V687.097H330.881V690.506H331.165C331.676 689.398 332.453 688.508 333.495 687.836C334.536 687.154 335.881 686.813 337.529 686.813C339.006 686.813 340.299 687.116 341.407 687.722C342.515 688.319 343.376 689.228 343.992 690.45C344.607 691.662 344.915 693.196 344.915 695.052V708.916H341.563V695.279C341.563 693.565 341.118 692.23 340.228 691.273C339.337 690.308 338.116 689.825 336.563 689.825C335.493 689.825 334.536 690.057 333.694 690.521C332.86 690.985 332.202 691.662 331.719 692.552C331.236 693.442 330.995 694.522 330.995 695.791ZM359.848 717.552C358.228 717.552 356.836 717.344 355.672 716.927C354.507 716.52 353.536 715.98 352.76 715.308C351.993 714.645 351.382 713.934 350.927 713.177L353.598 711.302C353.901 711.7 354.284 712.154 354.748 712.666C355.212 713.186 355.847 713.636 356.652 714.015C357.466 714.403 358.531 714.597 359.848 714.597C361.609 714.597 363.063 714.171 364.208 713.319C365.354 712.467 365.927 711.131 365.927 709.313V704.881H365.643C365.397 705.279 365.047 705.772 364.592 706.359C364.147 706.936 363.503 707.452 362.66 707.907C361.827 708.352 360.7 708.575 359.279 708.575C357.518 708.575 355.937 708.158 354.535 707.325C353.143 706.491 352.04 705.279 351.225 703.688C350.421 702.097 350.018 700.166 350.018 697.893C350.018 695.658 350.411 693.712 351.197 692.055C351.983 690.388 353.077 689.1 354.478 688.191C355.88 687.273 357.499 686.813 359.336 686.813C360.757 686.813 361.884 687.05 362.717 687.523C363.56 687.987 364.204 688.518 364.649 689.114C365.103 689.702 365.454 690.184 365.7 690.563H366.041V687.097H369.279V709.541C369.279 711.416 368.853 712.94 368.001 714.114C367.158 715.298 366.022 716.165 364.592 716.714C363.172 717.273 361.59 717.552 359.848 717.552ZM359.734 705.563C361.079 705.563 362.215 705.255 363.143 704.64C364.071 704.024 364.777 703.139 365.26 701.984C365.743 700.828 365.984 699.446 365.984 697.836C365.984 696.264 365.747 694.877 365.274 693.674C364.8 692.471 364.1 691.529 363.172 690.847C362.243 690.166 361.098 689.825 359.734 689.825C358.314 689.825 357.13 690.184 356.183 690.904C355.245 691.624 354.54 692.59 354.066 693.802C353.602 695.014 353.37 696.359 353.37 697.836C353.37 699.351 353.607 700.691 354.081 701.856C354.564 703.011 355.274 703.92 356.211 704.583C357.158 705.237 358.333 705.563 359.734 705.563ZM384.62 679.825H388.654L396.723 693.404H397.064L405.132 679.825H409.166L398.654 696.927V708.916H395.132V696.927L384.62 679.825ZM419.045 709.37C417.075 709.37 415.347 708.901 413.86 707.964C412.383 707.026 411.228 705.715 410.395 704.029C409.571 702.344 409.159 700.374 409.159 698.12C409.159 695.847 409.571 693.863 410.395 692.168C411.228 690.473 412.383 689.157 413.86 688.22C415.347 687.282 417.075 686.813 419.045 686.813C421.015 686.813 422.738 687.282 424.216 688.22C425.702 689.157 426.858 690.473 427.681 692.168C428.515 693.863 428.931 695.847 428.931 698.12C428.931 700.374 428.515 702.344 427.681 704.029C426.858 705.715 425.702 707.026 424.216 707.964C422.738 708.901 421.015 709.37 419.045 709.37ZM419.045 706.359C420.541 706.359 421.772 705.975 422.738 705.208C423.704 704.441 424.419 703.433 424.883 702.183C425.347 700.933 425.579 699.578 425.579 698.12C425.579 696.662 425.347 695.303 424.883 694.043C424.419 692.784 423.704 691.766 422.738 690.989C421.772 690.213 420.541 689.825 419.045 689.825C417.549 689.825 416.318 690.213 415.352 690.989C414.386 691.766 413.671 692.784 413.207 694.043C412.743 695.303 412.511 696.662 412.511 698.12C412.511 699.578 412.743 700.933 413.207 702.183C413.671 703.433 414.386 704.441 415.352 705.208C416.318 705.975 417.549 706.359 419.045 706.359ZM447.799 699.995V687.097H451.151V708.916H447.799V705.222H447.571C447.06 706.33 446.265 707.273 445.185 708.049C444.105 708.816 442.742 709.2 441.094 709.2C439.73 709.2 438.518 708.901 437.458 708.305C436.397 707.699 435.564 706.79 434.958 705.577C434.352 704.356 434.049 702.817 434.049 700.961V687.097H437.401V700.734C437.401 702.325 437.846 703.594 438.736 704.541C439.636 705.487 440.782 705.961 442.174 705.961C443.007 705.961 443.855 705.748 444.716 705.322C445.587 704.896 446.317 704.242 446.904 703.362C447.5 702.481 447.799 701.359 447.799 699.995ZM457.291 708.916V687.097H460.529V690.393H460.757C461.154 689.313 461.874 688.437 462.916 687.765C463.958 687.093 465.132 686.756 466.439 686.756C466.685 686.756 466.993 686.761 467.362 686.771C467.731 686.78 468.011 686.794 468.2 686.813V690.222C468.086 690.194 467.826 690.151 467.419 690.095C467.021 690.028 466.6 689.995 466.154 689.995C465.094 689.995 464.147 690.218 463.314 690.663C462.49 691.098 461.836 691.704 461.353 692.481C460.88 693.248 460.643 694.124 460.643 695.109V708.916H457.291ZM507.287 688.916H503.765C503.556 687.902 503.192 687.012 502.671 686.245C502.159 685.478 501.534 684.834 500.796 684.313C500.067 683.783 499.257 683.385 498.367 683.12C497.477 682.855 496.549 682.722 495.583 682.722C493.821 682.722 492.226 683.167 490.796 684.058C489.375 684.948 488.244 686.259 487.401 687.992C486.568 689.725 486.151 691.851 486.151 694.37C486.151 696.889 486.568 699.015 487.401 700.748C488.244 702.481 489.375 703.792 490.796 704.683C492.226 705.573 493.821 706.018 495.583 706.018C496.549 706.018 497.477 705.885 498.367 705.62C499.257 705.355 500.067 704.962 500.796 704.441C501.534 703.911 502.159 703.262 502.671 702.495C503.192 701.719 503.556 700.828 503.765 699.825H507.287C507.022 701.311 506.539 702.642 505.838 703.816C505.138 704.99 504.266 705.989 503.225 706.813C502.183 707.628 501.014 708.248 499.716 708.674C498.428 709.1 497.051 709.313 495.583 709.313C493.102 709.313 490.895 708.707 488.963 707.495C487.032 706.283 485.512 704.559 484.404 702.325C483.296 700.09 482.742 697.438 482.742 694.37C482.742 691.302 483.296 688.65 484.404 686.416C485.512 684.181 487.032 682.457 488.963 681.245C490.895 680.033 493.102 679.427 495.583 679.427C497.051 679.427 498.428 679.64 499.716 680.066C501.014 680.492 502.183 681.117 503.225 681.941C504.266 682.755 505.138 683.75 505.838 684.924C506.539 686.089 507.022 687.419 507.287 688.916ZM515.877 695.791V708.916H512.525V679.825H515.877V690.506H516.162C516.673 689.38 517.44 688.485 518.463 687.822C519.495 687.149 520.868 686.813 522.582 686.813C524.069 686.813 525.371 687.112 526.488 687.708C527.606 688.295 528.472 689.2 529.088 690.421C529.713 691.633 530.025 693.177 530.025 695.052V708.916H526.673V695.279C526.673 693.546 526.223 692.206 525.324 691.259C524.433 690.303 523.198 689.825 521.616 689.825C520.518 689.825 519.533 690.057 518.662 690.521C517.8 690.985 517.118 691.662 516.616 692.552C516.124 693.442 515.877 694.522 515.877 695.791ZM542.578 709.427C541.196 709.427 539.941 709.166 538.814 708.646C537.687 708.115 536.792 707.353 536.13 706.359C535.467 705.355 535.135 704.143 535.135 702.722C535.135 701.472 535.382 700.459 535.874 699.683C536.366 698.897 537.025 698.281 537.848 697.836C538.672 697.391 539.581 697.059 540.576 696.842C541.579 696.614 542.588 696.434 543.601 696.302C544.927 696.131 546.002 696.004 546.826 695.918C547.659 695.824 548.265 695.667 548.644 695.45C549.032 695.232 549.226 694.853 549.226 694.313V694.2C549.226 692.798 548.843 691.709 548.076 690.933C547.318 690.156 546.167 689.768 544.624 689.768C543.024 689.768 541.769 690.118 540.86 690.819C539.951 691.52 539.311 692.268 538.942 693.063L535.76 691.927C536.328 690.601 537.086 689.569 538.033 688.83C538.989 688.082 540.031 687.561 541.158 687.268C542.294 686.965 543.412 686.813 544.51 686.813C545.211 686.813 546.016 686.898 546.925 687.069C547.844 687.23 548.729 687.566 549.581 688.077C550.443 688.589 551.158 689.361 551.726 690.393C552.294 691.425 552.578 692.808 552.578 694.541V708.916H549.226V705.961H549.056C548.828 706.434 548.45 706.941 547.919 707.481C547.389 708.021 546.684 708.48 545.803 708.859C544.922 709.237 543.847 709.427 542.578 709.427ZM543.09 706.416C544.416 706.416 545.533 706.155 546.442 705.634C547.361 705.113 548.052 704.441 548.516 703.617C548.989 702.793 549.226 701.927 549.226 701.018V697.95C549.084 698.12 548.772 698.276 548.289 698.418C547.815 698.551 547.266 698.669 546.641 698.773C546.025 698.868 545.424 698.953 544.837 699.029C544.259 699.095 543.791 699.152 543.431 699.2C542.56 699.313 541.745 699.498 540.988 699.754C540.239 700 539.633 700.374 539.169 700.876C538.715 701.368 538.488 702.041 538.488 702.893C538.488 704.058 538.918 704.938 539.78 705.535C540.651 706.122 541.755 706.416 543.09 706.416ZM562.049 679.825V708.916H558.697V679.825H562.049ZM571.542 679.825V708.916H568.189V679.825H571.542ZM586.829 709.37C584.727 709.37 582.913 708.906 581.389 707.978C579.874 707.041 578.704 705.734 577.88 704.058C577.066 702.372 576.659 700.412 576.659 698.177C576.659 695.942 577.066 693.972 577.88 692.268C578.704 690.554 579.85 689.219 581.318 688.262C582.795 687.296 584.519 686.813 586.488 686.813C587.625 686.813 588.747 687.003 589.855 687.381C590.963 687.76 591.971 688.376 592.88 689.228C593.789 690.071 594.514 691.188 595.054 692.58C595.593 693.972 595.863 695.686 595.863 697.722V699.143H579.045V696.245H592.454C592.454 695.014 592.208 693.916 591.716 692.95C591.233 691.984 590.541 691.221 589.642 690.663C588.752 690.104 587.7 689.825 586.488 689.825C585.153 689.825 583.998 690.156 583.022 690.819C582.056 691.472 581.313 692.325 580.792 693.376C580.271 694.427 580.011 695.554 580.011 696.756V698.688C580.011 700.336 580.295 701.733 580.863 702.879C581.441 704.015 582.241 704.881 583.264 705.478C584.287 706.065 585.475 706.359 586.829 706.359C587.71 706.359 588.505 706.236 589.216 705.989C589.935 705.734 590.556 705.355 591.076 704.853C591.597 704.342 592 703.707 592.284 702.95L595.522 703.859C595.181 704.957 594.609 705.923 593.804 706.756C592.999 707.58 592.004 708.224 590.821 708.688C589.637 709.143 588.306 709.37 586.829 709.37ZM604.315 695.791V708.916H600.963V687.097H604.201V690.506H604.485C604.997 689.398 605.773 688.508 606.815 687.836C607.857 687.154 609.201 686.813 610.849 686.813C612.326 686.813 613.619 687.116 614.727 687.722C615.835 688.319 616.697 689.228 617.312 690.45C617.928 691.662 618.235 693.196 618.235 695.052V708.916H614.883V695.279C614.883 693.565 614.438 692.23 613.548 691.273C612.658 690.308 611.436 689.825 609.883 689.825C608.813 689.825 607.857 690.057 607.014 690.521C606.181 690.985 605.522 691.662 605.039 692.552C604.556 693.442 604.315 694.522 604.315 695.791ZM633.168 717.552C631.549 717.552 630.157 717.344 628.992 716.927C627.827 716.52 626.856 715.98 626.08 715.308C625.313 714.645 624.702 713.934 624.248 713.177L626.918 711.302C627.221 711.7 627.605 712.154 628.069 712.666C628.533 713.186 629.167 713.636 629.972 714.015C630.786 714.403 631.852 714.597 633.168 714.597C634.929 714.597 636.383 714.171 637.529 713.319C638.675 712.467 639.248 711.131 639.248 709.313V704.881H638.963C638.717 705.279 638.367 705.772 637.912 706.359C637.467 706.936 636.823 707.452 635.98 707.907C635.147 708.352 634.02 708.575 632.6 708.575C630.838 708.575 629.257 708.158 627.855 707.325C626.463 706.491 625.36 705.279 624.546 703.688C623.741 702.097 623.338 700.166 623.338 697.893C623.338 695.658 623.731 693.712 624.517 692.055C625.303 690.388 626.397 689.1 627.799 688.191C629.2 687.273 630.819 686.813 632.657 686.813C634.077 686.813 635.204 687.05 636.037 687.523C636.88 687.987 637.524 688.518 637.969 689.114C638.424 689.702 638.774 690.184 639.02 690.563H639.361V687.097H642.6V709.541C642.6 711.416 642.174 712.94 641.321 714.114C640.479 715.298 639.342 716.165 637.912 716.714C636.492 717.273 634.91 717.552 633.168 717.552ZM633.054 705.563C634.399 705.563 635.535 705.255 636.463 704.64C637.391 704.024 638.097 703.139 638.58 701.984C639.063 700.828 639.304 699.446 639.304 697.836C639.304 696.264 639.068 694.877 638.594 693.674C638.121 692.471 637.42 691.529 636.492 690.847C635.564 690.166 634.418 689.825 633.054 689.825C631.634 689.825 630.45 690.184 629.503 690.904C628.566 691.624 627.86 692.59 627.387 693.802C626.923 695.014 626.691 696.359 626.691 697.836C626.691 699.351 626.927 700.691 627.401 701.856C627.884 703.011 628.594 703.92 629.532 704.583C630.479 705.237 631.653 705.563 633.054 705.563ZM657.884 709.37C655.782 709.37 653.968 708.906 652.444 707.978C650.928 707.041 649.759 705.734 648.935 704.058C648.121 702.372 647.713 700.412 647.713 698.177C647.713 695.942 648.121 693.972 648.935 692.268C649.759 690.554 650.905 689.219 652.373 688.262C653.85 687.296 655.573 686.813 657.543 686.813C658.679 686.813 659.801 687.003 660.909 687.381C662.017 687.76 663.026 688.376 663.935 689.228C664.844 690.071 665.569 691.188 666.108 692.58C666.648 693.972 666.918 695.686 666.918 697.722V699.143H650.1V696.245H663.509C663.509 695.014 663.263 693.916 662.77 692.95C662.287 691.984 661.596 691.221 660.696 690.663C659.806 690.104 658.755 689.825 657.543 689.825C656.208 689.825 655.052 690.156 654.077 690.819C653.111 691.472 652.368 692.325 651.847 693.376C651.326 694.427 651.066 695.554 651.066 696.756V698.688C651.066 700.336 651.35 701.733 651.918 702.879C652.496 704.015 653.296 704.881 654.319 705.478C655.341 706.065 656.53 706.359 657.884 706.359C658.765 706.359 659.56 706.236 660.27 705.989C660.99 705.734 661.61 705.355 662.131 704.853C662.652 704.342 663.054 703.707 663.338 702.95L666.577 703.859C666.236 704.957 665.663 705.923 664.858 706.756C664.053 707.58 663.059 708.224 661.875 708.688C660.692 709.143 659.361 709.37 657.884 709.37ZM687.472 691.984L684.461 692.836C684.271 692.334 683.992 691.846 683.623 691.373C683.263 690.89 682.77 690.492 682.145 690.18C681.52 689.867 680.72 689.711 679.745 689.711C678.409 689.711 677.297 690.019 676.407 690.634C675.526 691.24 675.086 692.012 675.086 692.95C675.086 693.783 675.389 694.441 675.995 694.924C676.601 695.407 677.548 695.809 678.836 696.131L682.074 696.927C684.025 697.4 685.479 698.125 686.435 699.1C687.391 700.066 687.87 701.311 687.87 702.836C687.87 704.086 687.51 705.203 686.79 706.188C686.08 707.173 685.086 707.95 683.807 708.518C682.529 709.086 681.042 709.37 679.347 709.37C677.122 709.37 675.28 708.887 673.821 707.921C672.363 706.955 671.44 705.544 671.051 703.688L674.233 702.893C674.536 704.067 675.109 704.948 675.952 705.535C676.804 706.122 677.917 706.416 679.29 706.416C680.853 706.416 682.093 706.084 683.012 705.421C683.94 704.749 684.404 703.944 684.404 703.006C684.404 702.249 684.139 701.614 683.608 701.103C683.078 700.582 682.264 700.194 681.165 699.938L677.529 699.086C675.531 698.612 674.063 697.879 673.125 696.884C672.197 695.88 671.733 694.626 671.733 693.12C671.733 691.889 672.079 690.8 672.77 689.853C673.471 688.906 674.423 688.163 675.625 687.623C676.837 687.083 678.211 686.813 679.745 686.813C681.904 686.813 683.599 687.287 684.83 688.234C686.07 689.181 686.951 690.431 687.472 691.984ZM709.109 708.916L702.461 687.097H705.984L710.7 703.802H710.927L715.586 687.097H719.166L723.768 703.745H723.995L728.711 687.097H732.234L725.586 708.916H722.291L717.518 692.154H717.177L712.404 708.916H709.109ZM736.666 708.916V687.097H740.018V708.916H736.666ZM738.37 683.461C737.717 683.461 737.154 683.238 736.68 682.793C736.216 682.348 735.984 681.813 735.984 681.188C735.984 680.563 736.216 680.028 736.68 679.583C737.154 679.138 737.717 678.916 738.37 678.916C739.024 678.916 739.583 679.138 740.047 679.583C740.52 680.028 740.757 680.563 740.757 681.188C740.757 681.813 740.52 682.348 740.047 682.793C739.583 683.238 739.024 683.461 738.37 683.461ZM755.647 687.097V689.938H744.34V687.097H755.647ZM747.635 681.87H750.988V702.666C750.988 703.612 751.125 704.323 751.4 704.796C751.684 705.26 752.043 705.573 752.479 705.734C752.924 705.885 753.393 705.961 753.885 705.961C754.255 705.961 754.558 705.942 754.794 705.904C755.031 705.857 755.221 705.819 755.363 705.791L756.044 708.802C755.817 708.887 755.5 708.972 755.093 709.058C754.685 709.152 754.169 709.2 753.544 709.2C752.597 709.2 751.669 708.996 750.76 708.589C749.861 708.182 749.113 707.561 748.516 706.728C747.929 705.895 747.635 704.844 747.635 703.575V681.87ZM764.51 695.791V708.916H761.158V679.825H764.51V690.506H764.794C765.306 689.38 766.073 688.485 767.096 687.822C768.128 687.149 769.501 686.813 771.215 686.813C772.702 686.813 774.004 687.112 775.121 687.708C776.239 688.295 777.105 689.2 777.721 690.421C778.346 691.633 778.658 693.177 778.658 695.052V708.916H775.306V695.279C775.306 693.546 774.856 692.206 773.956 691.259C773.066 690.303 771.83 689.825 770.249 689.825C769.15 689.825 768.166 690.057 767.294 690.521C766.433 690.985 765.751 691.662 765.249 692.552C764.757 693.442 764.51 694.522 764.51 695.791ZM291.858 735.097C291.687 733.658 290.996 732.541 289.784 731.745C288.572 730.95 287.085 730.552 285.324 730.552C284.036 730.552 282.909 730.76 281.943 731.177C280.986 731.594 280.238 732.166 279.699 732.896C279.168 733.625 278.903 734.453 278.903 735.381C278.903 736.158 279.088 736.826 279.457 737.384C279.836 737.934 280.319 738.393 280.906 738.762C281.493 739.122 282.109 739.42 282.752 739.657C283.396 739.884 283.988 740.069 284.528 740.211L287.483 741.006C288.24 741.205 289.083 741.48 290.011 741.83C290.949 742.181 291.843 742.659 292.696 743.265C293.557 743.862 294.268 744.629 294.826 745.566C295.385 746.504 295.664 747.654 295.664 749.018C295.664 750.59 295.252 752.01 294.429 753.279C293.614 754.548 292.421 755.557 290.849 756.305C289.287 757.053 287.388 757.427 285.153 757.427C283.07 757.427 281.266 757.091 279.741 756.418C278.226 755.746 277.033 754.809 276.162 753.606C275.3 752.403 274.812 751.006 274.699 749.416H278.335C278.43 750.514 278.799 751.423 279.443 752.143C280.096 752.853 280.92 753.383 281.914 753.734C282.918 754.075 283.998 754.245 285.153 754.245C286.498 754.245 287.705 754.027 288.775 753.592C289.845 753.147 290.693 752.531 291.318 751.745C291.943 750.95 292.255 750.022 292.255 748.961C292.255 747.995 291.985 747.209 291.446 746.603C290.906 745.997 290.196 745.505 289.315 745.126C288.434 744.747 287.483 744.416 286.46 744.131L282.88 743.109C280.608 742.455 278.808 741.523 277.483 740.31C276.157 739.098 275.494 737.512 275.494 735.552C275.494 733.923 275.934 732.503 276.815 731.291C277.705 730.069 278.898 729.122 280.395 728.45C281.9 727.768 283.581 727.427 285.437 727.427C287.312 727.427 288.979 727.763 290.437 728.435C291.895 729.098 293.051 730.007 293.903 731.163C294.765 732.318 295.219 733.63 295.267 735.097H291.858ZM301.002 756.916V735.097H304.24V738.506H304.525C304.979 737.342 305.713 736.437 306.726 735.793C307.739 735.14 308.956 734.813 310.377 734.813C311.816 734.813 313.014 735.14 313.971 735.793C314.936 736.437 315.689 737.342 316.229 738.506H316.456C317.015 737.38 317.853 736.485 318.971 735.822C320.088 735.149 321.428 734.813 322.99 734.813C324.941 734.813 326.537 735.424 327.777 736.646C329.018 737.858 329.638 739.747 329.638 742.313V756.916H326.286V742.313C326.286 740.703 325.846 739.553 324.965 738.862C324.084 738.17 323.047 737.825 321.854 737.825C320.32 737.825 319.132 738.289 318.289 739.217C317.446 740.135 317.025 741.3 317.025 742.711V756.916H313.615V741.972C313.615 740.732 313.213 739.733 312.408 738.975C311.603 738.208 310.566 737.825 309.297 737.825C308.426 737.825 307.612 738.057 306.854 738.521C306.106 738.985 305.5 739.629 305.036 740.452C304.581 741.267 304.354 742.209 304.354 743.279V756.916H301.002ZM342.188 757.427C340.805 757.427 339.551 757.166 338.424 756.646C337.297 756.115 336.402 755.353 335.739 754.359C335.076 753.355 334.745 752.143 334.745 750.722C334.745 749.472 334.991 748.459 335.483 747.683C335.976 746.897 336.634 746.281 337.458 745.836C338.282 745.391 339.191 745.059 340.185 744.842C341.189 744.614 342.197 744.434 343.211 744.302C344.536 744.131 345.611 744.004 346.435 743.918C347.268 743.824 347.874 743.667 348.253 743.45C348.641 743.232 348.836 742.853 348.836 742.313V742.2C348.836 740.798 348.452 739.709 347.685 738.933C346.927 738.156 345.777 737.768 344.233 737.768C342.633 737.768 341.378 738.118 340.469 738.819C339.56 739.52 338.921 740.268 338.551 741.063L335.37 739.927C335.938 738.601 336.695 737.569 337.642 736.83C338.599 736.082 339.641 735.561 340.767 735.268C341.904 734.965 343.021 734.813 344.12 734.813C344.82 734.813 345.625 734.898 346.534 735.069C347.453 735.23 348.338 735.566 349.191 736.077C350.052 736.589 350.767 737.361 351.336 738.393C351.904 739.425 352.188 740.808 352.188 742.541V756.916H348.836V753.961H348.665C348.438 754.434 348.059 754.941 347.529 755.481C346.998 756.021 346.293 756.48 345.412 756.859C344.532 757.237 343.457 757.427 342.188 757.427ZM342.699 754.416C344.025 754.416 345.142 754.155 346.051 753.634C346.97 753.113 347.661 752.441 348.125 751.617C348.599 750.793 348.836 749.927 348.836 749.018V745.95C348.694 746.12 348.381 746.276 347.898 746.418C347.425 746.551 346.875 746.669 346.25 746.773C345.635 746.868 345.033 746.953 344.446 747.029C343.869 747.095 343.4 747.152 343.04 747.2C342.169 747.313 341.355 747.498 340.597 747.754C339.849 748 339.243 748.374 338.779 748.876C338.324 749.368 338.097 750.041 338.097 750.893C338.097 752.058 338.528 752.938 339.39 753.535C340.261 754.122 341.364 754.416 342.699 754.416ZM358.306 756.916V735.097H361.545V738.393H361.772C362.17 737.313 362.89 736.437 363.931 735.765C364.973 735.093 366.147 734.756 367.454 734.756C367.7 734.756 368.008 734.761 368.377 734.771C368.747 734.78 369.026 734.794 369.216 734.813V738.222C369.102 738.194 368.842 738.151 368.434 738.095C368.037 738.028 367.615 737.995 367.17 737.995C366.109 737.995 365.163 738.218 364.329 738.663C363.505 739.098 362.852 739.704 362.369 740.481C361.895 741.248 361.659 742.124 361.659 743.109V756.916H358.306ZM384.045 735.097V737.938H372.738V735.097H384.045ZM376.034 729.87H379.386V750.666C379.386 751.612 379.523 752.323 379.798 752.796C380.082 753.26 380.442 753.573 380.877 753.734C381.323 753.885 381.791 753.961 382.284 753.961C382.653 753.961 382.956 753.942 383.193 753.904C383.43 753.857 383.619 753.819 383.761 753.791L384.443 756.802C384.216 756.887 383.898 756.972 383.491 757.058C383.084 757.152 382.568 757.2 381.943 757.2C380.996 757.2 380.068 756.996 379.159 756.589C378.259 756.182 377.511 755.561 376.914 754.728C376.327 753.895 376.034 752.844 376.034 751.575V729.87ZM399.201 730.95V727.825H421.02V730.95H411.872V756.916H408.349V730.95H399.201ZM431.985 757.37C429.883 757.37 428.07 756.906 426.545 755.978C425.03 755.041 423.86 753.734 423.037 752.058C422.222 750.372 421.815 748.412 421.815 746.177C421.815 743.942 422.222 741.972 423.037 740.268C423.86 738.554 425.006 737.219 426.474 736.262C427.951 735.296 429.675 734.813 431.645 734.813C432.781 734.813 433.903 735.003 435.011 735.381C436.119 735.76 437.127 736.376 438.037 737.228C438.946 738.071 439.67 739.188 440.21 740.58C440.75 741.972 441.02 743.686 441.02 745.722V747.143H424.201V744.245H437.61C437.61 743.014 437.364 741.916 436.872 740.95C436.389 739.984 435.698 739.221 434.798 738.663C433.908 738.104 432.857 737.825 431.645 737.825C430.309 737.825 429.154 738.156 428.179 738.819C427.213 739.472 426.469 740.325 425.949 741.376C425.428 742.427 425.167 743.554 425.167 744.756V746.688C425.167 748.336 425.451 749.733 426.02 750.879C426.597 752.015 427.397 752.881 428.42 753.478C429.443 754.065 430.631 754.359 431.985 754.359C432.866 754.359 433.662 754.236 434.372 753.989C435.092 753.734 435.712 753.355 436.233 752.853C436.753 752.342 437.156 751.707 437.44 750.95L440.679 751.859C440.338 752.957 439.765 753.923 438.96 754.756C438.155 755.58 437.161 756.224 435.977 756.688C434.793 757.143 433.463 757.37 431.985 757.37ZM454.983 757.37C452.937 757.37 451.176 756.887 449.699 755.921C448.221 754.955 447.085 753.625 446.289 751.93C445.494 750.235 445.096 748.298 445.096 746.12C445.096 743.904 445.503 741.949 446.318 740.254C447.142 738.549 448.288 737.219 449.755 736.262C451.233 735.296 452.956 734.813 454.926 734.813C456.46 734.813 457.842 735.097 459.074 735.666C460.305 736.234 461.313 737.029 462.099 738.052C462.885 739.075 463.373 740.268 463.562 741.631H460.21C459.954 740.637 459.386 739.756 458.505 738.989C457.634 738.213 456.46 737.825 454.983 737.825C453.676 737.825 452.53 738.166 451.545 738.847C450.57 739.52 449.807 740.471 449.258 741.702C448.718 742.924 448.449 744.359 448.449 746.006C448.449 747.692 448.714 749.16 449.244 750.41C449.784 751.66 450.541 752.63 451.517 753.322C452.502 754.013 453.657 754.359 454.983 754.359C455.854 754.359 456.645 754.207 457.355 753.904C458.065 753.601 458.666 753.166 459.159 752.597C459.651 752.029 460.002 751.347 460.21 750.552H463.562C463.373 751.84 462.904 753 462.156 754.032C461.417 755.055 460.437 755.869 459.216 756.475C458.003 757.072 456.592 757.37 454.983 757.37ZM471.815 743.791V756.916H468.463V727.825H471.815V738.506H472.099C472.61 737.38 473.377 736.485 474.4 735.822C475.432 735.149 476.806 734.813 478.52 734.813C480.006 734.813 481.308 735.112 482.426 735.708C483.543 736.295 484.41 737.2 485.025 738.421C485.65 739.633 485.963 741.177 485.963 743.052V756.916H482.61V743.279C482.61 741.546 482.161 740.206 481.261 739.259C480.371 738.303 479.135 737.825 477.554 737.825C476.455 737.825 475.47 738.057 474.599 738.521C473.737 738.985 473.056 739.662 472.554 740.552C472.061 741.442 471.815 742.522 471.815 743.791ZM519.709 735.097C519.539 733.658 518.847 732.541 517.635 731.745C516.423 730.95 514.936 730.552 513.175 730.552C511.887 730.552 510.76 730.76 509.794 731.177C508.838 731.594 508.09 732.166 507.55 732.896C507.02 733.625 506.755 734.453 506.755 735.381C506.755 736.158 506.939 736.826 507.309 737.384C507.687 737.934 508.17 738.393 508.757 738.762C509.345 739.122 509.96 739.42 510.604 739.657C511.248 739.884 511.84 740.069 512.38 740.211L515.334 741.006C516.092 741.205 516.935 741.48 517.863 741.83C518.8 742.181 519.695 742.659 520.547 743.265C521.409 743.862 522.119 744.629 522.678 745.566C523.237 746.504 523.516 747.654 523.516 749.018C523.516 750.59 523.104 752.01 522.28 753.279C521.466 754.548 520.273 755.557 518.701 756.305C517.138 757.053 515.239 757.427 513.005 757.427C510.921 757.427 509.117 757.091 507.593 756.418C506.078 755.746 504.884 754.809 504.013 753.606C503.151 752.403 502.664 751.006 502.55 749.416H506.186C506.281 750.514 506.65 751.423 507.294 752.143C507.948 752.853 508.772 753.383 509.766 753.734C510.77 754.075 511.849 754.245 513.005 754.245C514.349 754.245 515.557 754.027 516.627 753.592C517.697 753.147 518.544 752.531 519.169 751.745C519.794 750.95 520.107 750.022 520.107 748.961C520.107 747.995 519.837 747.209 519.297 746.603C518.757 745.997 518.047 745.505 517.167 745.126C516.286 744.747 515.334 744.416 514.311 744.131L510.732 743.109C508.459 742.455 506.66 741.523 505.334 740.31C504.008 739.098 503.346 737.512 503.346 735.552C503.346 733.923 503.786 732.503 504.667 731.291C505.557 730.069 506.75 729.122 508.246 728.45C509.752 727.768 511.433 727.427 513.289 727.427C515.164 727.427 516.83 727.763 518.289 728.435C519.747 729.098 520.902 730.007 521.755 731.163C522.616 732.318 523.071 733.63 523.118 735.097H519.709ZM537.717 757.37C535.747 757.37 534.019 756.901 532.532 755.964C531.055 755.026 529.9 753.715 529.066 752.029C528.243 750.344 527.831 748.374 527.831 746.12C527.831 743.847 528.243 741.863 529.066 740.168C529.9 738.473 531.055 737.157 532.532 736.22C534.019 735.282 535.747 734.813 537.717 734.813C539.687 734.813 541.41 735.282 542.887 736.22C544.374 737.157 545.529 738.473 546.353 740.168C547.187 741.863 547.603 743.847 547.603 746.12C547.603 748.374 547.187 750.344 546.353 752.029C545.529 753.715 544.374 755.026 542.887 755.964C541.41 756.901 539.687 757.37 537.717 757.37ZM537.717 754.359C539.213 754.359 540.444 753.975 541.41 753.208C542.376 752.441 543.091 751.433 543.555 750.183C544.019 748.933 544.251 747.578 544.251 746.12C544.251 744.662 544.019 743.303 543.555 742.043C543.091 740.784 542.376 739.766 541.41 738.989C540.444 738.213 539.213 737.825 537.717 737.825C536.221 737.825 534.99 738.213 534.024 738.989C533.058 739.766 532.343 740.784 531.879 742.043C531.415 743.303 531.183 744.662 531.183 746.12C531.183 747.578 531.415 748.933 531.879 750.183C532.343 751.433 533.058 752.441 534.024 753.208C534.99 753.975 536.221 754.359 537.717 754.359ZM556.073 727.825V756.916H552.721V727.825H556.073ZM575.963 747.995V735.097H579.315V756.916H575.963V753.222H575.735C575.224 754.33 574.429 755.273 573.349 756.049C572.27 756.816 570.906 757.2 569.258 757.2C567.895 757.2 566.682 756.901 565.622 756.305C564.561 755.699 563.728 754.79 563.122 753.577C562.516 752.356 562.213 750.817 562.213 748.961V735.097H565.565V748.734C565.565 750.325 566.01 751.594 566.9 752.541C567.8 753.487 568.946 753.961 570.338 753.961C571.171 753.961 572.019 753.748 572.88 753.322C573.752 752.896 574.481 752.242 575.068 751.362C575.664 750.481 575.963 749.359 575.963 747.995ZM594.944 735.097V737.938H583.637V735.097H594.944ZM586.932 729.87H590.284V750.666C590.284 751.612 590.422 752.323 590.696 752.796C590.98 753.26 591.34 753.573 591.776 753.734C592.221 753.885 592.69 753.961 593.182 753.961C593.551 753.961 593.855 753.942 594.091 753.904C594.328 753.857 594.517 753.819 594.659 753.791L595.341 756.802C595.114 756.887 594.797 756.972 594.39 757.058C593.982 757.152 593.466 757.2 592.841 757.2C591.894 757.2 590.966 756.996 590.057 756.589C589.158 756.182 588.409 755.561 587.813 754.728C587.226 753.895 586.932 752.844 586.932 751.575V729.87ZM599.986 756.916V735.097H603.338V756.916H599.986ZM601.691 731.461C601.037 731.461 600.474 731.238 600 730.793C599.536 730.348 599.304 729.813 599.304 729.188C599.304 728.563 599.536 728.028 600 727.583C600.474 727.138 601.037 726.916 601.691 726.916C602.344 726.916 602.903 727.138 603.367 727.583C603.84 728.028 604.077 728.563 604.077 729.188C604.077 729.813 603.84 730.348 603.367 730.793C602.903 731.238 602.344 731.461 601.691 731.461ZM618.342 757.37C616.372 757.37 614.644 756.901 613.157 755.964C611.68 755.026 610.525 753.715 609.691 752.029C608.868 750.344 608.456 748.374 608.456 746.12C608.456 743.847 608.868 741.863 609.691 740.168C610.525 738.473 611.68 737.157 613.157 736.22C614.644 735.282 616.372 734.813 618.342 734.813C620.312 734.813 622.035 735.282 623.512 736.22C624.999 737.157 626.154 738.473 626.978 740.168C627.812 741.863 628.228 743.847 628.228 746.12C628.228 748.374 627.812 750.344 626.978 752.029C626.154 753.715 624.999 755.026 623.512 755.964C622.035 756.901 620.312 757.37 618.342 757.37ZM618.342 754.359C619.838 754.359 621.069 753.975 622.035 753.208C623.001 752.441 623.716 751.433 624.18 750.183C624.644 748.933 624.876 747.578 624.876 746.12C624.876 744.662 624.644 743.303 624.18 742.043C623.716 740.784 623.001 739.766 622.035 738.989C621.069 738.213 619.838 737.825 618.342 737.825C616.846 737.825 615.615 738.213 614.649 738.989C613.683 739.766 612.968 740.784 612.504 742.043C612.04 743.303 611.808 744.662 611.808 746.12C611.808 747.578 612.04 748.933 612.504 750.183C612.968 751.433 613.683 752.441 614.649 753.208C615.615 753.975 616.846 754.359 618.342 754.359ZM636.698 743.791V756.916H633.346V735.097H636.584V738.506H636.868C637.38 737.398 638.156 736.508 639.198 735.836C640.239 735.154 641.584 734.813 643.232 734.813C644.709 734.813 646.002 735.116 647.11 735.722C648.218 736.319 649.079 737.228 649.695 738.45C650.31 739.662 650.618 741.196 650.618 743.052V756.916H647.266V743.279C647.266 741.565 646.821 740.23 645.931 739.273C645.041 738.308 643.819 737.825 642.266 737.825C641.196 737.825 640.239 738.057 639.397 738.521C638.563 738.985 637.905 739.662 637.422 740.552C636.939 741.442 636.698 742.522 636.698 743.791ZM672.199 739.984L669.187 740.836C668.998 740.334 668.718 739.846 668.349 739.373C667.989 738.89 667.497 738.492 666.872 738.18C666.247 737.867 665.447 737.711 664.471 737.711C663.136 737.711 662.023 738.019 661.133 738.634C660.252 739.24 659.812 740.012 659.812 740.95C659.812 741.783 660.115 742.441 660.721 742.924C661.327 743.407 662.274 743.809 663.562 744.131L666.801 744.927C668.752 745.4 670.205 746.125 671.162 747.1C672.118 748.066 672.596 749.311 672.596 750.836C672.596 752.086 672.236 753.203 671.517 754.188C670.806 755.173 669.812 755.95 668.534 756.518C667.255 757.086 665.769 757.37 664.074 757.37C661.848 757.37 660.006 756.887 658.548 755.921C657.09 754.955 656.166 753.544 655.778 751.688L658.96 750.893C659.263 752.067 659.836 752.948 660.679 753.535C661.531 754.122 662.644 754.416 664.017 754.416C665.579 754.416 666.82 754.084 667.738 753.421C668.666 752.749 669.13 751.944 669.13 751.006C669.13 750.249 668.865 749.614 668.335 749.103C667.805 748.582 666.99 748.194 665.892 747.938L662.255 747.086C660.257 746.612 658.789 745.879 657.852 744.884C656.924 743.88 656.46 742.626 656.46 741.12C656.46 739.889 656.806 738.8 657.497 737.853C658.198 736.906 659.149 736.163 660.352 735.623C661.564 735.083 662.937 734.813 664.471 734.813C666.63 734.813 668.325 735.287 669.556 736.234C670.797 737.181 671.678 738.431 672.199 739.984Z" fill="#C6D8E1"/>
<path d="M225 446.108V252.179H306.06C319.616 252.179 331.316 254.687 341.158 259.703C352.486 265.461 361.493 273.727 368.178 284.501C374.864 295.089 378.206 306.791 378.206 319.609C378.206 332.426 374.864 344.221 368.178 354.995C361.679 365.769 352.765 374.035 341.437 379.793C331.78 384.809 319.988 387.316 306.06 387.316H275.697V446.108H225Z" fill="#C6D8E1"/>
<path d="M531.199 446.108H348.466L439.833 248L531.199 446.108ZM364.622 435.798H515.043L439.833 272.52L364.622 435.798Z" fill="#C6D8E1"/>
<path d="M515.944 252.179L590.04 432.455L664.136 252.179H675L595.333 446.108H584.469L504.802 252.179H515.944Z" fill="#C6D8E1"/>
<path d="M352.542 604.714C346.799 604.714 342.342 603.214 339.171 600.213C336.085 597.212 334.543 592.926 334.543 587.353V516.623H311.401V510.836H340.971V587.353C340.971 595.069 344.828 598.927 352.542 598.927H374.398V604.714H352.542Z" fill="#C6D8E1"/>
<path d="M403.403 606C396.118 606 390.375 603.985 386.175 599.956C382.061 595.841 380.004 590.611 380.004 584.267C380.004 578.18 381.976 573.207 385.918 569.349C389.947 565.491 395.218 563.562 401.732 563.562H425.773V556.489C425.773 550.659 424.231 546.201 421.145 543.115C418.145 540.028 413.86 538.485 408.289 538.485C402.889 538.485 398.518 539.728 395.175 542.215C391.918 544.701 390.161 547.959 389.904 551.988H383.476C383.818 546.158 386.218 541.486 390.675 537.971C395.218 534.456 401.132 532.698 408.417 532.698C416.045 532.698 421.916 534.756 426.031 538.871C430.145 542.986 432.202 548.859 432.202 556.489V604.714H425.773V593.011C424.316 596.955 421.574 600.127 417.545 602.528C413.603 604.843 408.889 606 403.403 606ZM405.203 600.213C411.546 600.213 416.56 598.584 420.245 595.326C423.931 592.068 425.773 587.61 425.773 581.952V569.22H401.603C397.146 569.22 393.504 570.592 390.675 573.336C387.847 576.079 386.433 579.551 386.433 583.752C386.433 588.639 388.104 592.626 391.447 595.712C394.875 598.713 399.46 600.213 405.203 600.213Z" fill="#C6D8E1"/>
<path d="M473.678 606C468.878 606 464.764 604.928 461.336 602.785C457.907 600.642 455.464 597.727 454.007 594.04V604.714H447.579V510.836H454.007V544.658C455.464 540.971 457.907 538.057 461.336 535.913C464.764 533.77 468.878 532.698 473.678 532.698C480.792 532.698 486.449 535.056 490.648 539.771C494.934 544.487 497.077 550.702 497.077 558.418V580.409C497.077 588.125 494.934 594.34 490.648 599.056C486.449 603.685 480.792 606 473.678 606ZM472.392 600.47C478.135 600.47 482.592 598.713 485.763 595.198C489.02 591.597 490.648 586.667 490.648 580.409V558.418C490.648 552.074 489.02 547.144 485.763 543.629C482.592 540.028 478.135 538.228 472.392 538.228C466.564 538.228 462.021 540.028 458.764 543.629C455.593 547.144 454.007 552.074 454.007 558.418V580.409C454.007 586.667 455.636 591.597 458.893 595.198C462.15 598.713 466.65 600.47 472.392 600.47Z" fill="#C6D8E1"/>
<path d="M532.253 606C525.825 606 520.511 604.285 516.311 600.856C512.197 597.341 509.84 592.84 509.24 587.353H515.668C516.354 591.04 518.154 594.126 521.068 596.612C524.068 599.013 527.796 600.213 532.253 600.213H541.638C546.352 600.213 550.081 599.013 552.823 596.612C555.566 594.126 556.938 590.825 556.938 586.71C556.938 583.024 555.823 579.766 553.595 576.936C551.452 574.107 548.495 572.478 544.724 572.05L529.168 570.121C523.168 569.349 518.497 567.42 515.154 564.334C511.811 561.247 510.14 557.089 510.14 551.86C510.14 546.03 512.154 541.4 516.183 537.971C520.297 534.456 525.739 532.698 532.51 532.698H539.453C545.881 532.698 551.109 534.284 555.138 537.456C559.252 540.629 561.609 544.829 562.209 550.059H555.78C555.266 546.716 553.552 543.972 550.638 541.829C547.724 539.6 543.995 538.485 539.453 538.485H532.51C527.711 538.485 523.854 539.685 520.939 542.086C518.111 544.487 516.697 547.702 516.697 551.731C516.697 555.246 517.854 557.989 520.168 559.961C522.482 561.933 525.825 563.219 530.196 563.819L545.495 565.748C550.895 566.434 555.181 568.663 558.352 572.435C561.609 576.122 563.237 580.58 563.237 585.81C563.237 591.897 561.266 596.784 557.323 600.47C553.466 604.157 548.238 606 541.638 606H532.253Z" fill="#C6D8E1"/>
</svg>
