<svg width="900" height="854" viewBox="0 0 900 854" fill="none" xmlns="http://www.w3.org/2000/svg">
<path d="M100 456.229V154.503H226.093C247.181 154.503 265.38 158.404 280.691 166.208C298.312 175.167 312.322 188.028 322.722 204.79C333.121 221.264 338.321 239.472 338.321 259.413C338.321 279.355 333.121 297.707 322.722 314.47C312.611 331.232 298.745 344.093 281.124 353.053C266.102 360.856 247.759 364.757 226.093 364.757H178.863V456.229H100Z" fill="#1E1E1E"/>
<path d="M576.31 456.229H292.058L434.184 148L576.31 456.229ZM317.19 440.189H551.178L434.184 186.149L317.19 440.189Z" fill="#1E1E1E"/>
<path d="M552.58 154.503L667.84 434.987L783.101 154.503H800L676.073 456.229H659.174L535.247 154.503H552.58Z" fill="#1E1E1E"/>
<path d="M298.398 702.999C289.465 702.999 282.532 700.665 277.599 695.996C272.8 691.328 270.4 684.658 270.4 675.988V565.942H234.402V556.938H280.399V675.988C280.399 687.993 286.399 693.995 298.398 693.995H332.397V702.999H298.398Z" fill="#1E1E1E"/>
<path d="M377.516 705C366.183 705 357.25 701.865 350.717 695.596C344.318 689.193 341.118 681.057 341.118 671.186C341.118 661.715 344.184 653.979 350.317 647.976C356.584 641.974 364.783 638.972 374.916 638.972H412.314V627.968C412.314 618.897 409.914 611.961 405.115 607.159C400.448 602.357 393.782 599.956 385.116 599.956C376.716 599.956 369.916 601.89 364.717 605.758C359.65 609.627 356.917 614.695 356.517 620.965H346.518C347.051 611.894 350.784 604.625 357.717 599.156C364.783 593.687 373.983 590.952 385.316 590.952C397.182 590.952 406.315 594.154 412.714 600.556C419.114 606.959 422.314 616.096 422.314 627.968V702.999H412.314V684.791C410.048 690.927 405.781 695.863 399.515 699.598C393.382 703.199 386.049 705 377.516 705ZM380.316 695.996C390.182 695.996 397.982 693.462 403.715 688.393C409.448 683.324 412.314 676.388 412.314 667.584V647.776H374.716C367.783 647.776 362.117 649.91 357.717 654.179C353.317 658.447 351.117 663.849 351.117 670.385C351.117 677.989 353.717 684.191 358.917 688.993C364.25 693.662 371.383 695.996 380.316 695.996Z" fill="#1E1E1E"/>
<path d="M486.832 705C479.366 705 472.966 703.333 467.633 699.998C462.3 696.663 458.5 692.128 456.234 686.392V702.999H446.234V556.938H456.234V609.56C458.5 603.824 462.3 599.289 467.633 595.954C472.966 592.62 479.366 590.952 486.832 590.952C497.898 590.952 506.698 594.62 513.231 601.957C519.897 609.293 523.23 618.964 523.23 630.969V665.183C523.23 677.188 519.897 686.859 513.231 694.195C506.698 701.399 497.898 705 486.832 705ZM484.832 696.396C493.765 696.396 500.698 693.662 505.631 688.193C510.698 682.591 513.231 674.921 513.231 665.183V630.969C513.231 621.098 510.698 613.428 505.631 607.959C500.698 602.357 493.765 599.556 484.832 599.556C475.766 599.556 468.7 602.357 463.633 607.959C458.7 613.428 456.234 621.098 456.234 630.969V665.183C456.234 674.921 458.767 682.591 463.833 688.193C468.9 693.662 475.899 696.396 484.832 696.396Z" fill="#1E1E1E"/>
<path d="M577.949 705C567.95 705 559.684 702.332 553.151 696.997C546.751 691.528 543.084 684.525 542.151 675.988H552.151C553.217 681.724 556.017 686.526 560.55 690.394C565.217 694.129 571.016 695.996 577.949 695.996H592.549C599.881 695.996 605.681 694.129 609.948 690.394C614.214 686.526 616.347 681.39 616.347 674.987C616.347 669.252 614.614 664.183 611.148 659.781C607.814 655.379 603.215 652.845 597.348 652.178L573.15 649.177C563.817 647.976 556.55 644.975 551.351 640.173C546.151 635.371 543.551 628.901 543.551 620.765C543.551 611.694 546.684 604.491 552.951 599.156C559.35 593.687 567.817 590.952 578.349 590.952H589.149C599.148 590.952 607.281 593.42 613.547 598.355C619.947 603.291 623.614 609.827 624.547 617.964H614.547C613.747 612.761 611.081 608.493 606.548 605.158C602.015 601.69 596.215 599.956 589.149 599.956H578.349C570.883 599.956 564.883 601.823 560.35 605.558C555.95 609.293 553.751 614.295 553.751 620.565C553.751 626.034 555.55 630.302 559.15 633.37C562.75 636.438 567.95 638.439 574.75 639.372L598.548 642.374C606.948 643.441 613.614 646.909 618.547 652.778C623.614 658.514 626.147 665.45 626.147 673.587C626.147 683.057 623.08 690.661 616.947 696.396C610.948 702.132 602.815 705 592.549 705H577.949Z" fill="#1E1E1E"/>
</svg>
